<?xml version="1.0" encoding="utf-8" standalone="no"?>
<!DOCTYPE svg PUBLIC "-//W3C//DTD SVG 1.1//EN"
  "http://www.w3.org/Graphics/SVG/1.1/DTD/svg11.dtd">
<svg xmlns:xlink="http://www.w3.org/1999/xlink" width="864pt" height="720pt" viewBox="0 0 864 720" xmlns="http://www.w3.org/2000/svg" version="1.1">
 <metadata>
  <rdf:RDF xmlns:dc="http://purl.org/dc/elements/1.1/" xmlns:cc="http://creativecommons.org/ns#" xmlns:rdf="http://www.w3.org/1999/02/22-rdf-syntax-ns#">
   <cc:Work>
    <dc:type rdf:resource="http://purl.org/dc/dcmitype/StillImage"/>
    <dc:date>2024-11-09T19:59:50.921015</dc:date>
    <dc:format>image/svg+xml</dc:format>
    <dc:creator>
     <cc:Agent>
      <dc:title>Matplotlib v3.8.0, https://matplotlib.org/</dc:title>
     </cc:Agent>
    </dc:creator>
   </cc:Work>
  </rdf:RDF>
 </metadata>
 <defs>
  <style type="text/css">*{stroke-linejoin: round; stroke-linecap: butt}</style>
 </defs>
 <g id="figure_1">
  <g id="patch_1">
   <path d="M 0 720 
L 864 720 
L 864 0 
L 0 0 
z
" style="fill: #ffffff"/>
  </g>
  <g id="axes_1">
   <g id="patch_2">
    <path d="M 108 640.8 
L 777.6 640.8 
L 777.6 86.4 
L 108 86.4 
z
" style="fill: #ebeae8"/>
   </g>
   <g id="matplotlib.axis_1">
    <g id="xtick_1">
     <g id="line2d_1">
      <path d="M 174.609424 640.8 
L 174.609424 86.4 
" clip-path="url(#pf72028e940)" style="fill: none; stroke: #ffffff; stroke-width: 0.8; stroke-linecap: square"/>
     </g>
     <g id="line2d_2">
      <defs>
       <path id="m1d80342bd4" d="M 0 0 
L 0 3.5 
" style="stroke: #555555; stroke-width: 0.8"/>
      </defs>
      <g>
       <use xlink:href="#m1d80342bd4" x="174.609424" y="640.8" style="fill: #555555; stroke: #555555; stroke-width: 0.8"/>
      </g>
     </g>
     <g id="text_1">
      <!-- 2007 -->
      <g style="fill: #555555" transform="translate(156.794424 658.437813) scale(0.14 -0.14)">
       <defs>
        <path id="DejaVuSans-32" d="M 1228 531 
L 3431 531 
L 3431 0 
L 469 0 
L 469 531 
Q 828 903 1448 1529 
Q 2069 2156 2228 2338 
Q 2531 2678 2651 2914 
Q 2772 3150 2772 3378 
Q 2772 3750 2511 3984 
Q 2250 4219 1831 4219 
Q 1534 4219 1204 4116 
Q 875 4013 500 3803 
L 500 4441 
Q 881 4594 1212 4672 
Q 1544 4750 1819 4750 
Q 2544 4750 2975 4387 
Q 3406 4025 3406 3419 
Q 3406 3131 3298 2873 
Q 3191 2616 2906 2266 
Q 2828 2175 2409 1742 
Q 1991 1309 1228 531 
z
" transform="scale(0.015625)"/>
        <path id="DejaVuSans-30" d="M 2034 4250 
Q 1547 4250 1301 3770 
Q 1056 3291 1056 2328 
Q 1056 1369 1301 889 
Q 1547 409 2034 409 
Q 2525 409 2770 889 
Q 3016 1369 3016 2328 
Q 3016 3291 2770 3770 
Q 2525 4250 2034 4250 
z
M 2034 4750 
Q 2819 4750 3233 4129 
Q 3647 3509 3647 2328 
Q 3647 1150 3233 529 
Q 2819 -91 2034 -91 
Q 1250 -91 836 529 
Q 422 1150 422 2328 
Q 422 3509 836 4129 
Q 1250 4750 2034 4750 
z
" transform="scale(0.015625)"/>
        <path id="DejaVuSans-37" d="M 525 4666 
L 3525 4666 
L 3525 4397 
L 1831 0 
L 1172 0 
L 2766 4134 
L 525 4134 
L 525 4666 
z
" transform="scale(0.015625)"/>
       </defs>
       <use xlink:href="#DejaVuSans-32"/>
       <use xlink:href="#DejaVuSans-30" x="63.623047"/>
       <use xlink:href="#DejaVuSans-30" x="127.246094"/>
       <use xlink:href="#DejaVuSans-37" x="190.869141"/>
      </g>
     </g>
    </g>
    <g id="xtick_2">
     <g id="line2d_3">
      <path d="M 258.747644 640.8 
L 258.747644 86.4 
" clip-path="url(#pf72028e940)" style="fill: none; stroke: #ffffff; stroke-width: 0.8; stroke-linecap: square"/>
     </g>
     <g id="line2d_4">
      <g>
       <use xlink:href="#m1d80342bd4" x="258.747644" y="640.8" style="fill: #555555; stroke: #555555; stroke-width: 0.8"/>
      </g>
     </g>
     <g id="text_2">
      <!-- 2009 -->
      <g style="fill: #555555" transform="translate(240.932644 658.437813) scale(0.14 -0.14)">
       <defs>
        <path id="DejaVuSans-39" d="M 703 97 
L 703 672 
Q 941 559 1184 500 
Q 1428 441 1663 441 
Q 2288 441 2617 861 
Q 2947 1281 2994 2138 
Q 2813 1869 2534 1725 
Q 2256 1581 1919 1581 
Q 1219 1581 811 2004 
Q 403 2428 403 3163 
Q 403 3881 828 4315 
Q 1253 4750 1959 4750 
Q 2769 4750 3195 4129 
Q 3622 3509 3622 2328 
Q 3622 1225 3098 567 
Q 2575 -91 1691 -91 
Q 1453 -91 1209 -44 
Q 966 3 703 97 
z
M 1959 2075 
Q 2384 2075 2632 2365 
Q 2881 2656 2881 3163 
Q 2881 3666 2632 3958 
Q 2384 4250 1959 4250 
Q 1534 4250 1286 3958 
Q 1038 3666 1038 3163 
Q 1038 2656 1286 2365 
Q 1534 2075 1959 2075 
z
" transform="scale(0.015625)"/>
       </defs>
       <use xlink:href="#DejaVuSans-32"/>
       <use xlink:href="#DejaVuSans-30" x="63.623047"/>
       <use xlink:href="#DejaVuSans-30" x="127.246094"/>
       <use xlink:href="#DejaVuSans-39" x="190.869141"/>
      </g>
     </g>
    </g>
    <g id="xtick_3">
     <g id="line2d_5">
      <path d="M 342.885864 640.8 
L 342.885864 86.4 
" clip-path="url(#pf72028e940)" style="fill: none; stroke: #ffffff; stroke-width: 0.8; stroke-linecap: square"/>
     </g>
     <g id="line2d_6">
      <g>
       <use xlink:href="#m1d80342bd4" x="342.885864" y="640.8" style="fill: #555555; stroke: #555555; stroke-width: 0.8"/>
      </g>
     </g>
     <g id="text_3">
      <!-- 2011 -->
      <g style="fill: #555555" transform="translate(325.070864 658.437813) scale(0.14 -0.14)">
       <defs>
        <path id="DejaVuSans-31" d="M 794 531 
L 1825 531 
L 1825 4091 
L 703 3866 
L 703 4441 
L 1819 4666 
L 2450 4666 
L 2450 531 
L 3481 531 
L 3481 0 
L 794 0 
L 794 531 
z
" transform="scale(0.015625)"/>
       </defs>
       <use xlink:href="#DejaVuSans-32"/>
       <use xlink:href="#DejaVuSans-30" x="63.623047"/>
       <use xlink:href="#DejaVuSans-31" x="127.246094"/>
       <use xlink:href="#DejaVuSans-31" x="190.869141"/>
      </g>
     </g>
    </g>
    <g id="xtick_4">
     <g id="line2d_7">
      <path d="M 427.024084 640.8 
L 427.024084 86.4 
" clip-path="url(#pf72028e940)" style="fill: none; stroke: #ffffff; stroke-width: 0.8; stroke-linecap: square"/>
     </g>
     <g id="line2d_8">
      <g>
       <use xlink:href="#m1d80342bd4" x="427.024084" y="640.8" style="fill: #555555; stroke: #555555; stroke-width: 0.8"/>
      </g>
     </g>
     <g id="text_4">
      <!-- 2013 -->
      <g style="fill: #555555" transform="translate(409.209084 658.437813) scale(0.14 -0.14)">
       <defs>
        <path id="DejaVuSans-33" d="M 2597 2516 
Q 3050 2419 3304 2112 
Q 3559 1806 3559 1356 
Q 3559 666 3084 287 
Q 2609 -91 1734 -91 
Q 1441 -91 1130 -33 
Q 819 25 488 141 
L 488 750 
Q 750 597 1062 519 
Q 1375 441 1716 441 
Q 2309 441 2620 675 
Q 2931 909 2931 1356 
Q 2931 1769 2642 2001 
Q 2353 2234 1838 2234 
L 1294 2234 
L 1294 2753 
L 1863 2753 
Q 2328 2753 2575 2939 
Q 2822 3125 2822 3475 
Q 2822 3834 2567 4026 
Q 2313 4219 1838 4219 
Q 1578 4219 1281 4162 
Q 984 4106 628 3988 
L 628 4550 
Q 988 4650 1302 4700 
Q 1616 4750 1894 4750 
Q 2613 4750 3031 4423 
Q 3450 4097 3450 3541 
Q 3450 3153 3228 2886 
Q 3006 2619 2597 2516 
z
" transform="scale(0.015625)"/>
       </defs>
       <use xlink:href="#DejaVuSans-32"/>
       <use xlink:href="#DejaVuSans-30" x="63.623047"/>
       <use xlink:href="#DejaVuSans-31" x="127.246094"/>
       <use xlink:href="#DejaVuSans-33" x="190.869141"/>
      </g>
     </g>
    </g>
    <g id="xtick_5">
     <g id="line2d_9">
      <path d="M 511.162304 640.8 
L 511.162304 86.4 
" clip-path="url(#pf72028e940)" style="fill: none; stroke: #ffffff; stroke-width: 0.8; stroke-linecap: square"/>
     </g>
     <g id="line2d_10">
      <g>
       <use xlink:href="#m1d80342bd4" x="511.162304" y="640.8" style="fill: #555555; stroke: #555555; stroke-width: 0.8"/>
      </g>
     </g>
     <g id="text_5">
      <!-- 2015 -->
      <g style="fill: #555555" transform="translate(493.347304 658.437813) scale(0.14 -0.14)">
       <defs>
        <path id="DejaVuSans-35" d="M 691 4666 
L 3169 4666 
L 3169 4134 
L 1269 4134 
L 1269 2991 
Q 1406 3038 1543 3061 
Q 1681 3084 1819 3084 
Q 2600 3084 3056 2656 
Q 3513 2228 3513 1497 
Q 3513 744 3044 326 
Q 2575 -91 1722 -91 
Q 1428 -91 1123 -41 
Q 819 9 494 109 
L 494 744 
Q 775 591 1075 516 
Q 1375 441 1709 441 
Q 2250 441 2565 725 
Q 2881 1009 2881 1497 
Q 2881 1984 2565 2268 
Q 2250 2553 1709 2553 
Q 1456 2553 1204 2497 
Q 953 2441 691 2322 
L 691 4666 
z
" transform="scale(0.015625)"/>
       </defs>
       <use xlink:href="#DejaVuSans-32"/>
       <use xlink:href="#DejaVuSans-30" x="63.623047"/>
       <use xlink:href="#DejaVuSans-31" x="127.246094"/>
       <use xlink:href="#DejaVuSans-35" x="190.869141"/>
      </g>
     </g>
    </g>
    <g id="xtick_6">
     <g id="line2d_11">
      <path d="M 595.300524 640.8 
L 595.300524 86.4 
" clip-path="url(#pf72028e940)" style="fill: none; stroke: #ffffff; stroke-width: 0.8; stroke-linecap: square"/>
     </g>
     <g id="line2d_12">
      <g>
       <use xlink:href="#m1d80342bd4" x="595.300524" y="640.8" style="fill: #555555; stroke: #555555; stroke-width: 0.8"/>
      </g>
     </g>
     <g id="text_6">
      <!-- 2017 -->
      <g style="fill: #555555" transform="translate(577.485524 658.437813) scale(0.14 -0.14)">
       <use xlink:href="#DejaVuSans-32"/>
       <use xlink:href="#DejaVuSans-30" x="63.623047"/>
       <use xlink:href="#DejaVuSans-31" x="127.246094"/>
       <use xlink:href="#DejaVuSans-37" x="190.869141"/>
      </g>
     </g>
    </g>
    <g id="xtick_7">
     <g id="line2d_13">
      <path d="M 679.438743 640.8 
L 679.438743 86.4 
" clip-path="url(#pf72028e940)" style="fill: none; stroke: #ffffff; stroke-width: 0.8; stroke-linecap: square"/>
     </g>
     <g id="line2d_14">
      <g>
       <use xlink:href="#m1d80342bd4" x="679.438743" y="640.8" style="fill: #555555; stroke: #555555; stroke-width: 0.8"/>
      </g>
     </g>
     <g id="text_7">
      <!-- 2019 -->
      <g style="fill: #555555" transform="translate(661.623743 658.437813) scale(0.14 -0.14)">
       <use xlink:href="#DejaVuSans-32"/>
       <use xlink:href="#DejaVuSans-30" x="63.623047"/>
       <use xlink:href="#DejaVuSans-31" x="127.246094"/>
       <use xlink:href="#DejaVuSans-39" x="190.869141"/>
      </g>
     </g>
    </g>
    <g id="xtick_8">
     <g id="line2d_15">
      <path d="M 763.576963 640.8 
L 763.576963 86.4 
" clip-path="url(#pf72028e940)" style="fill: none; stroke: #ffffff; stroke-width: 0.8; stroke-linecap: square"/>
     </g>
     <g id="line2d_16">
      <g>
       <use xlink:href="#m1d80342bd4" x="763.576963" y="640.8" style="fill: #555555; stroke: #555555; stroke-width: 0.8"/>
      </g>
     </g>
     <g id="text_8">
      <!-- 2021 -->
      <g style="fill: #555555" transform="translate(745.761963 658.437813) scale(0.14 -0.14)">
       <use xlink:href="#DejaVuSans-32"/>
       <use xlink:href="#DejaVuSans-30" x="63.623047"/>
       <use xlink:href="#DejaVuSans-32" x="127.246094"/>
       <use xlink:href="#DejaVuSans-31" x="190.869141"/>
      </g>
     </g>
    </g>
    <g id="xtick_9">
     <g id="line2d_17">
      <defs>
       <path id="m219f0dfaf5" d="M 0 0 
L 0 2 
" style="stroke: #555555; stroke-width: 0.6"/>
      </defs>
      <g>
       <use xlink:href="#m219f0dfaf5" x="132.540314" y="640.8" style="fill: #555555; stroke: #555555; stroke-width: 0.6"/>
      </g>
     </g>
    </g>
    <g id="xtick_10">
     <g id="line2d_18">
      <g>
       <use xlink:href="#m219f0dfaf5" x="216.678534" y="640.8" style="fill: #555555; stroke: #555555; stroke-width: 0.6"/>
      </g>
     </g>
    </g>
    <g id="xtick_11">
     <g id="line2d_19">
      <g>
       <use xlink:href="#m219f0dfaf5" x="300.816754" y="640.8" style="fill: #555555; stroke: #555555; stroke-width: 0.6"/>
      </g>
     </g>
    </g>
    <g id="xtick_12">
     <g id="line2d_20">
      <g>
       <use xlink:href="#m219f0dfaf5" x="384.954974" y="640.8" style="fill: #555555; stroke: #555555; stroke-width: 0.6"/>
      </g>
     </g>
    </g>
    <g id="xtick_13">
     <g id="line2d_21">
      <g>
       <use xlink:href="#m219f0dfaf5" x="469.093194" y="640.8" style="fill: #555555; stroke: #555555; stroke-width: 0.6"/>
      </g>
     </g>
    </g>
    <g id="xtick_14">
     <g id="line2d_22">
      <g>
       <use xlink:href="#m219f0dfaf5" x="553.231414" y="640.8" style="fill: #555555; stroke: #555555; stroke-width: 0.6"/>
      </g>
     </g>
    </g>
    <g id="xtick_15">
     <g id="line2d_23">
      <g>
       <use xlink:href="#m219f0dfaf5" x="637.369634" y="640.8" style="fill: #555555; stroke: #555555; stroke-width: 0.6"/>
      </g>
     </g>
    </g>
    <g id="xtick_16">
     <g id="line2d_24">
      <g>
       <use xlink:href="#m219f0dfaf5" x="721.507853" y="640.8" style="fill: #555555; stroke: #555555; stroke-width: 0.6"/>
      </g>
     </g>
    </g>
   </g>
   <g id="matplotlib.axis_2">
    <g id="ytick_1">
     <g id="line2d_25">
      <path d="M 108 640.8 
L 777.6 640.8 
" clip-path="url(#pf72028e940)" style="fill: none; stroke: #ffffff; stroke-width: 0.8; stroke-linecap: square"/>
     </g>
     <g id="line2d_26">
      <defs>
       <path id="m14ab6d8e7d" d="M 0 0 
L -3.5 0 
" style="stroke: #555555; stroke-width: 0.8"/>
      </defs>
      <g>
       <use xlink:href="#m14ab6d8e7d" x="108" y="640.8" style="fill: #555555; stroke: #555555; stroke-width: 0.8"/>
      </g>
     </g>
     <g id="text_9">
      <!-- 0.00% -->
      <g style="fill: #555555" transform="translate(56.525937 646.118906) scale(0.14 -0.14)">
       <defs>
        <path id="DejaVuSans-2e" d="M 684 794 
L 1344 794 
L 1344 0 
L 684 0 
L 684 794 
z
" transform="scale(0.015625)"/>
        <path id="DejaVuSans-25" d="M 4653 2053 
Q 4381 2053 4226 1822 
Q 4072 1591 4072 1178 
Q 4072 772 4226 539 
Q 4381 306 4653 306 
Q 4919 306 5073 539 
Q 5228 772 5228 1178 
Q 5228 1588 5073 1820 
Q 4919 2053 4653 2053 
z
M 4653 2450 
Q 5147 2450 5437 2106 
Q 5728 1763 5728 1178 
Q 5728 594 5436 251 
Q 5144 -91 4653 -91 
Q 4153 -91 3862 251 
Q 3572 594 3572 1178 
Q 3572 1766 3864 2108 
Q 4156 2450 4653 2450 
z
M 1428 4353 
Q 1159 4353 1004 4120 
Q 850 3888 850 3481 
Q 850 3069 1003 2837 
Q 1156 2606 1428 2606 
Q 1700 2606 1854 2837 
Q 2009 3069 2009 3481 
Q 2009 3884 1853 4118 
Q 1697 4353 1428 4353 
z
M 4250 4750 
L 4750 4750 
L 1831 -91 
L 1331 -91 
L 4250 4750 
z
M 1428 4750 
Q 1922 4750 2215 4408 
Q 2509 4066 2509 3481 
Q 2509 2891 2217 2550 
Q 1925 2209 1428 2209 
Q 931 2209 642 2551 
Q 353 2894 353 3481 
Q 353 4063 643 4406 
Q 934 4750 1428 4750 
z
" transform="scale(0.015625)"/>
       </defs>
       <use xlink:href="#DejaVuSans-30"/>
       <use xlink:href="#DejaVuSans-2e" x="63.623047"/>
       <use xlink:href="#DejaVuSans-30" x="95.410156"/>
       <use xlink:href="#DejaVuSans-30" x="159.033203"/>
       <use xlink:href="#DejaVuSans-25" x="222.65625"/>
      </g>
     </g>
    </g>
    <g id="ytick_2">
     <g id="line2d_27">
      <path d="M 108 552.096 
L 777.6 552.096 
" clip-path="url(#pf72028e940)" style="fill: none; stroke: #ffffff; stroke-width: 0.8; stroke-linecap: square"/>
     </g>
     <g id="line2d_28">
      <g>
       <use xlink:href="#m14ab6d8e7d" x="108" y="552.096" style="fill: #555555; stroke: #555555; stroke-width: 0.8"/>
      </g>
     </g>
     <g id="text_10">
      <!-- 0.20% -->
      <g style="fill: #555555" transform="translate(56.525937 557.414906) scale(0.14 -0.14)">
       <use xlink:href="#DejaVuSans-30"/>
       <use xlink:href="#DejaVuSans-2e" x="63.623047"/>
       <use xlink:href="#DejaVuSans-32" x="95.410156"/>
       <use xlink:href="#DejaVuSans-30" x="159.033203"/>
       <use xlink:href="#DejaVuSans-25" x="222.65625"/>
      </g>
     </g>
    </g>
    <g id="ytick_3">
     <g id="line2d_29">
      <path d="M 108 463.392 
L 777.6 463.392 
" clip-path="url(#pf72028e940)" style="fill: none; stroke: #ffffff; stroke-width: 0.8; stroke-linecap: square"/>
     </g>
     <g id="line2d_30">
      <g>
       <use xlink:href="#m14ab6d8e7d" x="108" y="463.392" style="fill: #555555; stroke: #555555; stroke-width: 0.8"/>
      </g>
     </g>
     <g id="text_11">
      <!-- 0.40% -->
      <g style="fill: #555555" transform="translate(56.525937 468.710906) scale(0.14 -0.14)">
       <defs>
        <path id="DejaVuSans-34" d="M 2419 4116 
L 825 1625 
L 2419 1625 
L 2419 4116 
z
M 2253 4666 
L 3047 4666 
L 3047 1625 
L 3713 1625 
L 3713 1100 
L 3047 1100 
L 3047 0 
L 2419 0 
L 2419 1100 
L 313 1100 
L 313 1709 
L 2253 4666 
z
" transform="scale(0.015625)"/>
       </defs>
       <use xlink:href="#DejaVuSans-30"/>
       <use xlink:href="#DejaVuSans-2e" x="63.623047"/>
       <use xlink:href="#DejaVuSans-34" x="95.410156"/>
       <use xlink:href="#DejaVuSans-30" x="159.033203"/>
       <use xlink:href="#DejaVuSans-25" x="222.65625"/>
      </g>
     </g>
    </g>
    <g id="ytick_4">
     <g id="line2d_31">
      <path d="M 108 374.688 
L 777.6 374.688 
" clip-path="url(#pf72028e940)" style="fill: none; stroke: #ffffff; stroke-width: 0.8; stroke-linecap: square"/>
     </g>
     <g id="line2d_32">
      <g>
       <use xlink:href="#m14ab6d8e7d" x="108" y="374.688" style="fill: #555555; stroke: #555555; stroke-width: 0.8"/>
      </g>
     </g>
     <g id="text_12">
      <!-- 0.60% -->
      <g style="fill: #555555" transform="translate(56.525937 380.006906) scale(0.14 -0.14)">
       <defs>
        <path id="DejaVuSans-36" d="M 2113 2584 
Q 1688 2584 1439 2293 
Q 1191 2003 1191 1497 
Q 1191 994 1439 701 
Q 1688 409 2113 409 
Q 2538 409 2786 701 
Q 3034 994 3034 1497 
Q 3034 2003 2786 2293 
Q 2538 2584 2113 2584 
z
M 3366 4563 
L 3366 3988 
Q 3128 4100 2886 4159 
Q 2644 4219 2406 4219 
Q 1781 4219 1451 3797 
Q 1122 3375 1075 2522 
Q 1259 2794 1537 2939 
Q 1816 3084 2150 3084 
Q 2853 3084 3261 2657 
Q 3669 2231 3669 1497 
Q 3669 778 3244 343 
Q 2819 -91 2113 -91 
Q 1303 -91 875 529 
Q 447 1150 447 2328 
Q 447 3434 972 4092 
Q 1497 4750 2381 4750 
Q 2619 4750 2861 4703 
Q 3103 4656 3366 4563 
z
" transform="scale(0.015625)"/>
       </defs>
       <use xlink:href="#DejaVuSans-30"/>
       <use xlink:href="#DejaVuSans-2e" x="63.623047"/>
       <use xlink:href="#DejaVuSans-36" x="95.410156"/>
       <use xlink:href="#DejaVuSans-30" x="159.033203"/>
       <use xlink:href="#DejaVuSans-25" x="222.65625"/>
      </g>
     </g>
    </g>
    <g id="ytick_5">
     <g id="line2d_33">
      <path d="M 108 285.984 
L 777.6 285.984 
" clip-path="url(#pf72028e940)" style="fill: none; stroke: #ffffff; stroke-width: 0.8; stroke-linecap: square"/>
     </g>
     <g id="line2d_34">
      <g>
       <use xlink:href="#m14ab6d8e7d" x="108" y="285.984" style="fill: #555555; stroke: #555555; stroke-width: 0.8"/>
      </g>
     </g>
     <g id="text_13">
      <!-- 0.80% -->
      <g style="fill: #555555" transform="translate(56.525937 291.302906) scale(0.14 -0.14)">
       <defs>
        <path id="DejaVuSans-38" d="M 2034 2216 
Q 1584 2216 1326 1975 
Q 1069 1734 1069 1313 
Q 1069 891 1326 650 
Q 1584 409 2034 409 
Q 2484 409 2743 651 
Q 3003 894 3003 1313 
Q 3003 1734 2745 1975 
Q 2488 2216 2034 2216 
z
M 1403 2484 
Q 997 2584 770 2862 
Q 544 3141 544 3541 
Q 544 4100 942 4425 
Q 1341 4750 2034 4750 
Q 2731 4750 3128 4425 
Q 3525 4100 3525 3541 
Q 3525 3141 3298 2862 
Q 3072 2584 2669 2484 
Q 3125 2378 3379 2068 
Q 3634 1759 3634 1313 
Q 3634 634 3220 271 
Q 2806 -91 2034 -91 
Q 1263 -91 848 271 
Q 434 634 434 1313 
Q 434 1759 690 2068 
Q 947 2378 1403 2484 
z
M 1172 3481 
Q 1172 3119 1398 2916 
Q 1625 2713 2034 2713 
Q 2441 2713 2670 2916 
Q 2900 3119 2900 3481 
Q 2900 3844 2670 4047 
Q 2441 4250 2034 4250 
Q 1625 4250 1398 4047 
Q 1172 3844 1172 3481 
z
" transform="scale(0.015625)"/>
       </defs>
       <use xlink:href="#DejaVuSans-30"/>
       <use xlink:href="#DejaVuSans-2e" x="63.623047"/>
       <use xlink:href="#DejaVuSans-38" x="95.410156"/>
       <use xlink:href="#DejaVuSans-30" x="159.033203"/>
       <use xlink:href="#DejaVuSans-25" x="222.65625"/>
      </g>
     </g>
    </g>
    <g id="ytick_6">
     <g id="line2d_35">
      <path d="M 108 197.28 
L 777.6 197.28 
" clip-path="url(#pf72028e940)" style="fill: none; stroke: #ffffff; stroke-width: 0.8; stroke-linecap: square"/>
     </g>
     <g id="line2d_36">
      <g>
       <use xlink:href="#m14ab6d8e7d" x="108" y="197.28" style="fill: #555555; stroke: #555555; stroke-width: 0.8"/>
      </g>
     </g>
     <g id="text_14">
      <!-- 1.00% -->
      <g style="fill: #555555" transform="translate(56.525937 202.598906) scale(0.14 -0.14)">
       <use xlink:href="#DejaVuSans-31"/>
       <use xlink:href="#DejaVuSans-2e" x="63.623047"/>
       <use xlink:href="#DejaVuSans-30" x="95.410156"/>
       <use xlink:href="#DejaVuSans-30" x="159.033203"/>
       <use xlink:href="#DejaVuSans-25" x="222.65625"/>
      </g>
     </g>
    </g>
    <g id="ytick_7">
     <g id="line2d_37">
      <path d="M 108 108.576 
L 777.6 108.576 
" clip-path="url(#pf72028e940)" style="fill: none; stroke: #ffffff; stroke-width: 0.8; stroke-linecap: square"/>
     </g>
     <g id="line2d_38">
      <g>
       <use xlink:href="#m14ab6d8e7d" x="108" y="108.576" style="fill: #555555; stroke: #555555; stroke-width: 0.8"/>
      </g>
     </g>
     <g id="text_15">
      <!-- 1.20% -->
      <g style="fill: #555555" transform="translate(56.525937 113.894906) scale(0.14 -0.14)">
       <use xlink:href="#DejaVuSans-31"/>
       <use xlink:href="#DejaVuSans-2e" x="63.623047"/>
       <use xlink:href="#DejaVuSans-32" x="95.410156"/>
       <use xlink:href="#DejaVuSans-30" x="159.033203"/>
       <use xlink:href="#DejaVuSans-25" x="222.65625"/>
      </g>
     </g>
    </g>
    <g id="text_16">
     <!-- Percentage -->
     <g style="fill: #555555" transform="translate(49.614375 402.971719) rotate(-90) scale(0.14 -0.14)">
      <defs>
       <path id="DejaVuSans-50" d="M 1259 4147 
L 1259 2394 
L 2053 2394 
Q 2494 2394 2734 2622 
Q 2975 2850 2975 3272 
Q 2975 3691 2734 3919 
Q 2494 4147 2053 4147 
L 1259 4147 
z
M 628 4666 
L 2053 4666 
Q 2838 4666 3239 4311 
Q 3641 3956 3641 3272 
Q 3641 2581 3239 2228 
Q 2838 1875 2053 1875 
L 1259 1875 
L 1259 0 
L 628 0 
L 628 4666 
z
" transform="scale(0.015625)"/>
       <path id="DejaVuSans-65" d="M 3597 1894 
L 3597 1613 
L 953 1613 
Q 991 1019 1311 708 
Q 1631 397 2203 397 
Q 2534 397 2845 478 
Q 3156 559 3463 722 
L 3463 178 
Q 3153 47 2828 -22 
Q 2503 -91 2169 -91 
Q 1331 -91 842 396 
Q 353 884 353 1716 
Q 353 2575 817 3079 
Q 1281 3584 2069 3584 
Q 2775 3584 3186 3129 
Q 3597 2675 3597 1894 
z
M 3022 2063 
Q 3016 2534 2758 2815 
Q 2500 3097 2075 3097 
Q 1594 3097 1305 2825 
Q 1016 2553 972 2059 
L 3022 2063 
z
" transform="scale(0.015625)"/>
       <path id="DejaVuSans-72" d="M 2631 2963 
Q 2534 3019 2420 3045 
Q 2306 3072 2169 3072 
Q 1681 3072 1420 2755 
Q 1159 2438 1159 1844 
L 1159 0 
L 581 0 
L 581 3500 
L 1159 3500 
L 1159 2956 
Q 1341 3275 1631 3429 
Q 1922 3584 2338 3584 
Q 2397 3584 2469 3576 
Q 2541 3569 2628 3553 
L 2631 2963 
z
" transform="scale(0.015625)"/>
       <path id="DejaVuSans-63" d="M 3122 3366 
L 3122 2828 
Q 2878 2963 2633 3030 
Q 2388 3097 2138 3097 
Q 1578 3097 1268 2742 
Q 959 2388 959 1747 
Q 959 1106 1268 751 
Q 1578 397 2138 397 
Q 2388 397 2633 464 
Q 2878 531 3122 666 
L 3122 134 
Q 2881 22 2623 -34 
Q 2366 -91 2075 -91 
Q 1284 -91 818 406 
Q 353 903 353 1747 
Q 353 2603 823 3093 
Q 1294 3584 2113 3584 
Q 2378 3584 2631 3529 
Q 2884 3475 3122 3366 
z
" transform="scale(0.015625)"/>
       <path id="DejaVuSans-6e" d="M 3513 2113 
L 3513 0 
L 2938 0 
L 2938 2094 
Q 2938 2591 2744 2837 
Q 2550 3084 2163 3084 
Q 1697 3084 1428 2787 
Q 1159 2491 1159 1978 
L 1159 0 
L 581 0 
L 581 3500 
L 1159 3500 
L 1159 2956 
Q 1366 3272 1645 3428 
Q 1925 3584 2291 3584 
Q 2894 3584 3203 3211 
Q 3513 2838 3513 2113 
z
" transform="scale(0.015625)"/>
       <path id="DejaVuSans-74" d="M 1172 4494 
L 1172 3500 
L 2356 3500 
L 2356 3053 
L 1172 3053 
L 1172 1153 
Q 1172 725 1289 603 
Q 1406 481 1766 481 
L 2356 481 
L 2356 0 
L 1766 0 
Q 1100 0 847 248 
Q 594 497 594 1153 
L 594 3053 
L 172 3053 
L 172 3500 
L 594 3500 
L 594 4494 
L 1172 4494 
z
" transform="scale(0.015625)"/>
       <path id="DejaVuSans-61" d="M 2194 1759 
Q 1497 1759 1228 1600 
Q 959 1441 959 1056 
Q 959 750 1161 570 
Q 1363 391 1709 391 
Q 2188 391 2477 730 
Q 2766 1069 2766 1631 
L 2766 1759 
L 2194 1759 
z
M 3341 1997 
L 3341 0 
L 2766 0 
L 2766 531 
Q 2569 213 2275 61 
Q 1981 -91 1556 -91 
Q 1019 -91 701 211 
Q 384 513 384 1019 
Q 384 1609 779 1909 
Q 1175 2209 1959 2209 
L 2766 2209 
L 2766 2266 
Q 2766 2663 2505 2880 
Q 2244 3097 1772 3097 
Q 1472 3097 1187 3025 
Q 903 2953 641 2809 
L 641 3341 
Q 956 3463 1253 3523 
Q 1550 3584 1831 3584 
Q 2591 3584 2966 3190 
Q 3341 2797 3341 1997 
z
" transform="scale(0.015625)"/>
       <path id="DejaVuSans-67" d="M 2906 1791 
Q 2906 2416 2648 2759 
Q 2391 3103 1925 3103 
Q 1463 3103 1205 2759 
Q 947 2416 947 1791 
Q 947 1169 1205 825 
Q 1463 481 1925 481 
Q 2391 481 2648 825 
Q 2906 1169 2906 1791 
z
M 3481 434 
Q 3481 -459 3084 -895 
Q 2688 -1331 1869 -1331 
Q 1566 -1331 1297 -1286 
Q 1028 -1241 775 -1147 
L 775 -588 
Q 1028 -725 1275 -790 
Q 1522 -856 1778 -856 
Q 2344 -856 2625 -561 
Q 2906 -266 2906 331 
L 2906 616 
Q 2728 306 2450 153 
Q 2172 0 1784 0 
Q 1141 0 747 490 
Q 353 981 353 1791 
Q 353 2603 747 3093 
Q 1141 3584 1784 3584 
Q 2172 3584 2450 3431 
Q 2728 3278 2906 2969 
L 2906 3500 
L 3481 3500 
L 3481 434 
z
" transform="scale(0.015625)"/>
      </defs>
      <use xlink:href="#DejaVuSans-50"/>
      <use xlink:href="#DejaVuSans-65" x="56.677734"/>
      <use xlink:href="#DejaVuSans-72" x="118.201172"/>
      <use xlink:href="#DejaVuSans-63" x="157.064453"/>
      <use xlink:href="#DejaVuSans-65" x="212.044922"/>
      <use xlink:href="#DejaVuSans-6e" x="273.568359"/>
      <use xlink:href="#DejaVuSans-74" x="336.947266"/>
      <use xlink:href="#DejaVuSans-61" x="376.15625"/>
      <use xlink:href="#DejaVuSans-67" x="437.435547"/>
      <use xlink:href="#DejaVuSans-65" x="500.912109"/>
     </g>
    </g>
   </g>
   <g id="line2d_39">
    <path d="M 108 640.8 
L 111.505759 517.48582 
L 115.011518 233.507588 
L 118.517277 441.58726 
L 122.023037 387.215094 
L 125.528796 484.926521 
L 129.034555 458.622255 
L 132.540314 392.807952 
L 136.046073 514.760215 
L 139.551832 513.321198 
L 143.057592 457.118573 
L 146.563351 456.766805 
L 150.06911 428.752308 
L 153.574869 450.661983 
L 157.080628 489.513423 
L 160.586387 487.332872 
L 164.092147 478.817374 
L 167.597906 457.726352 
L 171.103665 448.462733 
L 174.609424 327.369057 
L 178.115183 218.060773 
L 181.620942 275.498407 
L 185.126702 307.857325 
L 188.632461 328.078135 
L 195.643979 352.579817 
L 199.149738 414.738036 
L 202.655497 358.055636 
L 206.161257 422.166761 
L 209.667016 387.63984 
L 213.172775 324.891768 
L 216.678534 432.612691 
L 220.184293 424.191209 
L 223.690052 436.476081 
L 227.195812 355.310748 
L 230.701571 382.989061 
L 234.20733 367.266305 
L 237.713089 369.716164 
L 241.218848 416.068621 
L 244.724607 430.002179 
L 248.230366 466.040199 
L 251.736126 463.069742 
L 255.241885 452.091351 
L 258.747644 437.969915 
L 262.253403 460.314445 
L 265.759162 443.492554 
L 269.264921 441.710495 
L 272.770681 484.341241 
L 276.27644 441.199886 
L 279.782199 455.971878 
L 283.287958 484.093535 
L 286.793717 454.497113 
L 290.299476 408.7143 
L 293.805236 312.611673 
L 297.310995 102.061399 
L 300.816754 428.333201 
L 304.322513 396.23171 
L 307.828272 468.054294 
L 311.334031 485.895412 
L 314.839791 513.843339 
L 318.34555 511.840661 
L 321.851309 492.812775 
L 325.357068 498.373208 
L 328.862827 513.184613 
L 332.368586 506.04774 
L 335.874346 499.450045 
L 339.380105 513.244854 
L 346.391623 539.129908 
L 349.897382 536.41479 
L 353.403141 542.358815 
L 356.908901 549.847026 
L 360.41466 539.521635 
L 363.920419 549.360602 
L 367.426178 562.161431 
L 370.931937 569.032671 
L 374.437696 583.55715 
L 377.943455 577.030284 
L 384.954974 593.170735 
L 388.460733 585.343525 
L 391.966492 582.909327 
L 395.472251 589.375214 
L 398.97801 592.907827 
L 402.48377 597.484985 
L 405.989529 586.782233 
L 409.495288 591.965419 
L 413.001047 592.909472 
L 416.506806 585.331163 
L 420.012565 575.389389 
L 423.518325 587.057057 
L 427.024084 588.848576 
L 430.529843 588.806112 
L 434.035602 592.036039 
L 437.541361 591.471657 
L 441.04712 582.02161 
L 444.55288 582.326652 
L 448.058639 586.253867 
L 451.564398 582.829563 
L 455.070157 567.546998 
L 458.575916 583.723051 
L 462.081675 569.028487 
L 465.587435 584.738865 
L 469.093194 570.060035 
L 472.598953 588.66535 
L 476.104712 585.690722 
L 479.610471 582.21059 
L 483.11623 564.362819 
L 486.62199 575.128028 
L 490.127749 582.858438 
L 493.633508 589.93061 
L 497.139267 558.313757 
L 500.645026 581.371232 
L 504.150785 576.736154 
L 507.656545 590.726153 
L 511.162304 588.657548 
L 514.668063 580.80449 
L 518.173822 578.411604 
L 521.679581 582.310779 
L 525.18534 575.017857 
L 528.691099 573.882762 
L 532.196859 583.247936 
L 535.702618 593.736249 
L 539.208377 586.921903 
L 542.714136 584.280072 
L 546.219895 560.419515 
L 549.725654 556.480062 
L 553.231414 597.56049 
L 556.737173 596.193143 
L 560.242932 587.259395 
L 563.748691 584.873955 
L 567.25445 586.398884 
L 570.760209 591.64039 
L 574.265969 595.688733 
L 577.771728 590.218421 
L 581.277487 582.493748 
L 584.783246 586.266916 
L 588.289005 554.857906 
L 591.794764 566.090164 
L 595.300524 557.119005 
L 598.806283 570.342864 
L 602.312042 548.912141 
L 605.817801 559.954711 
L 609.32356 539.834801 
L 612.829319 461.191897 
L 616.335079 560.408819 
L 619.840838 567.890735 
L 623.346597 558.567848 
L 626.852356 570.581982 
L 630.358115 557.984416 
L 633.863874 575.918232 
L 637.369634 578.179928 
L 640.875393 586.304516 
L 644.381152 581.248095 
L 647.886911 583.908744 
L 651.39267 584.554316 
L 654.898429 583.100849 
L 658.404188 586.623993 
L 661.909948 573.23792 
L 665.415707 580.605845 
L 668.921466 560.38578 
L 672.427225 560.719651 
L 675.932984 558.861169 
L 679.438743 578.509104 
L 682.944503 564.151223 
L 686.450262 568.121811 
L 689.956021 567.197143 
L 693.46178 562.709541 
L 696.967539 562.591566 
L 700.473298 569.020438 
L 703.979058 537.93109 
L 707.484817 451.928021 
L 710.990576 537.451686 
L 714.496335 543.464222 
L 718.002094 555.090783 
L 721.507853 564.918325 
L 725.013613 581.817564 
L 728.519372 603.679275 
L 732.025131 612.014861 
L 735.53089 613.291188 
L 739.036649 612.61584 
L 742.542408 609.374155 
L 746.048168 609.276731 
L 749.553927 596.894015 
L 753.059686 604.013121 
L 756.565445 607.252442 
L 760.071204 609.823521 
L 763.576963 609.176155 
L 767.082723 603.315462 
L 770.588482 608.746152 
L 774.094241 600.679209 
L 777.6 611.321307 
L 777.6 611.321307 
" clip-path="url(#pf72028e940)" style="fill: none; stroke: #006ba4; stroke-width: 3; stroke-linecap: square"/>
   </g>
   <g id="line2d_40">
    <path d="M 129.034555 558.284651 
L 132.540314 350.443208 
L 136.046073 494.504233 
L 139.551832 519.191226 
L 143.057592 310.88989 
L 146.563351 361.731978 
L 150.06911 179.988149 
L 153.574869 414.434846 
L 157.080628 451.317771 
L 160.586387 402.738944 
L 164.092147 454.047839 
L 167.597906 462.021844 
L 171.103665 467.078672 
L 174.609424 284.745169 
L 178.115183 243.814493 
L 181.620942 343.789435 
L 185.126702 384.007402 
L 188.632461 408.215157 
L 192.13822 444.837584 
L 195.643979 420.042353 
L 199.149738 485.940078 
L 202.655497 489.36907 
L 206.161257 411.250859 
L 209.667016 489.30664 
L 213.172775 436.975349 
L 216.678534 502.258134 
L 220.184293 503.055881 
L 223.690052 493.606542 
L 227.195812 412.371342 
L 230.701571 444.003401 
L 234.20733 452.316054 
L 237.713089 445.612582 
L 241.218848 480.198992 
L 244.724607 510.523833 
L 248.230366 506.54361 
L 251.736126 517.816138 
L 255.241885 515.571535 
L 258.747644 521.321718 
L 262.253403 531.505776 
L 265.759162 513.873723 
L 269.264921 507.492661 
L 272.770681 545.358375 
L 276.27644 501.939041 
L 279.782199 505.357006 
L 283.287958 537.259778 
L 286.793717 536.634967 
L 290.299476 522.542085 
L 293.805236 457.580907 
L 297.310995 400.879222 
L 300.816754 515.991106 
L 304.322513 481.875434 
L 307.828272 530.478272 
L 311.334031 536.714569 
L 314.839791 548.834461 
L 318.34555 552.368851 
L 321.851309 553.640932 
L 325.357068 551.291689 
L 328.862827 567.107367 
L 332.368586 551.776393 
L 335.874346 560.118213 
L 339.380105 564.328499 
L 342.885864 545.47784 
L 346.391623 567.543491 
L 349.897382 553.430346 
L 353.403141 567.787945 
L 356.908901 562.261644 
L 360.41466 569.257419 
L 363.920419 579.225825 
L 367.426178 579.447597 
L 370.931937 581.366685 
L 374.437696 586.304469 
L 377.943455 585.939299 
L 381.449215 589.550321 
L 384.954974 589.623588 
L 391.966492 586.541671 
L 395.472251 590.897248 
L 398.97801 593.250772 
L 402.48377 597.721799 
L 405.989529 591.308082 
L 409.495288 594.491805 
L 413.001047 596.375134 
L 416.506806 590.230828 
L 420.012565 587.878031 
L 423.518325 595.899177 
L 427.024084 594.350402 
L 430.529843 594.086424 
L 434.035602 596.702072 
L 437.541361 595.420605 
L 441.04712 591.127597 
L 444.55288 600.344457 
L 448.058639 595.338167 
L 451.564398 594.050408 
L 455.070157 589.993353 
L 458.575916 592.336177 
L 462.081675 595.441681 
L 465.587435 595.104653 
L 469.093194 586.968879 
L 472.598953 592.381449 
L 476.104712 594.352565 
L 479.610471 589.580806 
L 483.11623 580.211258 
L 490.127749 590.034835 
L 493.633508 596.506342 
L 497.139267 588.414166 
L 500.645026 593.717193 
L 504.150785 585.028781 
L 507.656545 597.264656 
L 511.162304 591.39897 
L 514.668063 590.432055 
L 518.173822 584.835355 
L 521.679581 592.353354 
L 525.18534 587.449268 
L 528.691099 591.843873 
L 532.196859 590.3814 
L 535.702618 591.643063 
L 539.208377 584.269477 
L 542.714136 588.190281 
L 546.219895 585.230227 
L 549.725654 576.425791 
L 553.231414 590.103911 
L 556.737173 585.305557 
L 560.242932 581.530187 
L 563.748691 580.450163 
L 567.25445 581.866906 
L 570.760209 587.58453 
L 574.265969 583.005423 
L 577.771728 583.579372 
L 581.277487 580.50971 
L 584.783246 581.048203 
L 588.289005 534.699642 
L 591.794764 551.480019 
L 595.300524 560.374183 
L 598.806283 572.961864 
L 602.312042 570.547211 
L 605.817801 576.51657 
L 609.32356 573.699356 
L 612.829319 535.012476 
L 616.335079 579.309168 
L 619.840838 582.679831 
L 623.346597 574.408412 
L 626.852356 590.782836 
L 630.358115 583.291893 
L 633.863874 587.564998 
L 637.369634 588.739854 
L 640.875393 589.473721 
L 644.381152 594.519418 
L 647.886911 592.493548 
L 651.39267 590.126797 
L 654.898429 591.451981 
L 658.404188 587.781674 
L 661.909948 581.877605 
L 665.415707 591.413505 
L 668.921466 571.889052 
L 672.427225 571.181784 
L 675.932984 572.466478 
L 679.438743 575.553296 
L 682.944503 566.809073 
L 686.450262 575.009438 
L 689.956021 575.16224 
L 693.46178 565.446996 
L 696.967539 562.37203 
L 700.473298 569.979348 
L 703.979058 555.596875 
L 707.484817 527.18341 
L 710.990576 556.96672 
L 714.496335 568.186793 
L 718.002094 560.674845 
L 721.507853 555.325908 
L 725.013613 572.732761 
L 728.519372 588.40202 
L 732.025131 596.359198 
L 735.53089 598.898593 
L 739.036649 598.635793 
L 742.542408 595.370737 
L 746.048168 595.290524 
L 749.553927 582.956704 
L 753.059686 586.166502 
L 756.565445 590.211178 
L 760.071204 597.393418 
L 763.576963 594.010431 
L 767.082723 583.514037 
L 770.588482 593.138596 
L 774.094241 592.323997 
L 777.6 596.432384 
L 777.6 596.432384 
" clip-path="url(#pf72028e940)" style="fill: none; stroke: #ff800e; stroke-width: 3; stroke-linecap: square"/>
   </g>
   <g id="line2d_41">
    <path d="M 108 640.8 
L 111.505759 517.48582 
L 115.011518 233.507588 
L 118.517277 441.58726 
L 122.023037 387.215094 
L 125.528796 484.926521 
L 129.034555 475.281729 
L 132.540314 379.54953 
L 136.046073 504.853345 
L 139.551832 516.404609 
L 143.057592 368.908197 
L 146.563351 395.348604 
L 150.06911 271.400412 
L 153.574869 428.690266 
L 157.080628 468.363986 
L 160.586387 446.396287 
L 164.092147 464.314711 
L 167.597906 460.421589 
L 171.103665 460.118803 
L 174.609424 299.647137 
L 178.115183 235.289972 
L 181.620942 320.381778 
L 185.126702 359.120746 
L 188.632461 386.034584 
L 192.13822 417.656141 
L 195.643979 402.175088 
L 199.149738 466.431926 
L 202.655497 455.194508 
L 206.161257 414.20298 
L 209.667016 466.664345 
L 213.172775 410.71459 
L 216.678534 485.608977 
L 220.184293 483.281728 
L 223.690052 478.398361 
L 227.195812 397.341117 
L 230.701571 428.863437 
L 234.20733 431.209633 
L 237.713089 425.195213 
L 241.218848 463.339557 
L 244.724607 488.505049 
L 248.230366 495.860445 
L 251.736126 503.805566 
L 255.241885 499.682097 
L 258.747644 501.364917 
L 262.253403 513.115289 
L 265.759162 495.782628 
L 269.264921 491.310822 
L 272.770681 531.43383 
L 276.27644 487.741876 
L 279.782199 494.239772 
L 283.287958 526.661777 
L 286.793717 521.933752 
L 290.299476 503.104223 
L 293.805236 432.92741 
L 297.310995 352.697639 
L 300.816754 501.973232 
L 304.322513 468.287058 
L 307.828272 520.659064 
L 311.334031 528.517776 
L 314.839791 544.06504 
L 318.34555 547.53533 
L 321.851309 546.882178 
L 325.357068 545.34814 
L 328.862827 561.005703 
L 332.368586 546.686444 
L 335.874346 553.686705 
L 339.380105 558.76595 
L 342.885864 543.290656 
L 346.391623 564.291828 
L 349.897382 551.482483 
L 353.403141 564.89648 
L 356.908901 560.903358 
L 360.41466 566.117476 
L 363.920419 576.030276 
L 367.426178 577.628688 
L 370.931937 580.025372 
L 374.437696 586.014309 
L 377.943455 584.984842 
L 381.449215 589.075893 
L 384.954974 590.007017 
L 388.460733 587.829278 
L 391.966492 586.150366 
L 395.472251 590.734546 
L 398.97801 593.216089 
L 402.48377 597.698461 
L 405.989529 590.857456 
L 409.495288 594.245007 
L 413.001047 596.032656 
L 416.506806 589.737357 
L 420.012565 586.642555 
L 423.518325 595.059721 
L 427.024084 593.835564 
L 430.529843 593.580045 
L 434.035602 596.262354 
L 437.541361 595.056688 
L 441.04712 590.311302 
L 444.55288 598.740907 
L 448.058639 594.537726 
L 451.564398 593.073609 
L 455.070157 587.998033 
L 458.575916 591.578356 
L 462.081675 593.167981 
L 465.587435 594.201118 
L 469.093194 585.463574 
L 472.598953 592.03759 
L 476.104712 593.571349 
L 479.610471 588.929358 
L 483.11623 578.798068 
L 490.127749 589.40586 
L 493.633508 595.920429 
L 497.139267 585.640265 
L 500.645026 592.577283 
L 504.150785 584.256585 
L 507.656545 596.658838 
L 511.162304 591.146356 
L 514.668063 589.518226 
L 518.173822 584.236365 
L 521.679581 591.424618 
L 525.18534 586.261483 
L 528.691099 590.069292 
L 532.196859 589.722801 
L 535.702618 591.844193 
L 539.208377 584.534775 
L 542.714136 587.815292 
L 546.219895 582.831337 
L 549.725654 574.481078 
L 553.231414 590.84855 
L 560.242932 582.088483 
L 563.748691 580.88031 
L 567.25445 582.32187 
L 570.760209 587.983627 
L 574.265969 584.26273 
L 577.771728 584.231849 
L 581.277487 580.707889 
L 584.783246 581.588016 
L 588.289005 536.890506 
L 591.794764 553.072212 
L 595.300524 560.033823 
L 598.806283 572.677862 
L 602.312042 568.21845 
L 605.817801 574.756808 
L 609.32356 570.097652 
L 612.829319 527.096118 
L 616.335079 577.252274 
L 619.840838 581.058467 
L 623.346597 572.740456 
L 626.852356 588.62179 
L 630.358115 580.537363 
L 633.863874 586.290133 
L 637.369634 587.57912 
L 640.875393 589.128589 
L 644.381152 593.049022 
L 647.886911 591.558083 
L 651.39267 589.526794 
L 654.898429 590.563656 
L 658.404188 587.654849 
L 661.909948 580.918156 
L 665.415707 590.208734 
L 668.921466 570.616438 
L 672.427225 570.034732 
L 675.932984 570.985685 
L 679.438743 575.886621 
L 682.944503 566.502273 
L 686.450262 574.196827 
L 689.956021 574.232028 
L 693.46178 565.11806 
L 696.967539 562.400176 
L 700.473298 569.859905 
L 703.979058 553.301807 
L 707.484817 517.333483 
L 710.990576 554.440595 
L 714.496335 564.899342 
L 718.002094 559.966349 
L 721.507853 556.527893 
L 725.013613 573.916994 
L 728.519372 590.507494 
L 732.025131 598.514673 
L 735.53089 600.764314 
L 739.036649 600.423768 
L 742.542408 597.158991 
L 746.048168 597.086086 
L 749.553927 584.799517 
L 756.565445 592.440186 
L 760.071204 599.063537 
L 763.576963 596.049851 
L 767.082723 586.259423 
L 770.588482 595.280921 
L 774.094241 593.442423 
L 777.6 598.561121 
L 777.6 598.561121 
" clip-path="url(#pf72028e940)" style="fill: none; stroke: #ababab; stroke-width: 3; stroke-linecap: square"/>
   </g>
   <g id="patch_3">
    <path d="M 108 640.8 
L 108 86.4 
" style="fill: none; stroke: #ffffff; stroke-linejoin: miter; stroke-linecap: square"/>
   </g>
   <g id="patch_4">
    <path d="M 777.6 640.8 
L 777.6 86.4 
" style="fill: none; stroke: #ffffff; stroke-linejoin: miter; stroke-linecap: square"/>
   </g>
   <g id="patch_5">
    <path d="M 108 640.8 
L 777.6 640.8 
" style="fill: none; stroke: #ffffff; stroke-linejoin: miter; stroke-linecap: square"/>
   </g>
   <g id="patch_6">
    <path d="M 108 86.4 
L 777.6 86.4 
" style="fill: none; stroke: #ffffff; stroke-linejoin: miter; stroke-linecap: square"/>
   </g>
   <g id="legend_1">
    <g id="patch_7">
     <path d="M 617.866562 159.248125 
L 767.8 159.248125 
Q 770.6 159.248125 770.6 156.448125 
L 770.6 96.2 
Q 770.6 93.4 767.8 93.4 
L 617.866562 93.4 
Q 615.066563 93.4 615.066563 96.2 
L 615.066563 156.448125 
Q 615.066563 159.248125 617.866562 159.248125 
z
" style="fill: #ebeae8; opacity: 0.8; stroke: #cccccc; stroke-width: 0.5; stroke-linejoin: miter"/>
    </g>
    <g id="line2d_42">
     <path d="M 620.666563 104.737812 
L 634.666563 104.737812 
L 648.666563 104.737812 
" style="fill: none; stroke: #006ba4; stroke-width: 3; stroke-linecap: square"/>
    </g>
    <g id="text_17">
     <!-- % Submissions -->
     <g transform="translate(659.866563 109.637812) scale(0.14 -0.14)">
      <defs>
       <path id="DejaVuSans-20" transform="scale(0.015625)"/>
       <path id="DejaVuSans-53" d="M 3425 4513 
L 3425 3897 
Q 3066 4069 2747 4153 
Q 2428 4238 2131 4238 
Q 1616 4238 1336 4038 
Q 1056 3838 1056 3469 
Q 1056 3159 1242 3001 
Q 1428 2844 1947 2747 
L 2328 2669 
Q 3034 2534 3370 2195 
Q 3706 1856 3706 1288 
Q 3706 609 3251 259 
Q 2797 -91 1919 -91 
Q 1588 -91 1214 -16 
Q 841 59 441 206 
L 441 856 
Q 825 641 1194 531 
Q 1563 422 1919 422 
Q 2459 422 2753 634 
Q 3047 847 3047 1241 
Q 3047 1584 2836 1778 
Q 2625 1972 2144 2069 
L 1759 2144 
Q 1053 2284 737 2584 
Q 422 2884 422 3419 
Q 422 4038 858 4394 
Q 1294 4750 2059 4750 
Q 2388 4750 2728 4690 
Q 3069 4631 3425 4513 
z
" transform="scale(0.015625)"/>
       <path id="DejaVuSans-75" d="M 544 1381 
L 544 3500 
L 1119 3500 
L 1119 1403 
Q 1119 906 1312 657 
Q 1506 409 1894 409 
Q 2359 409 2629 706 
Q 2900 1003 2900 1516 
L 2900 3500 
L 3475 3500 
L 3475 0 
L 2900 0 
L 2900 538 
Q 2691 219 2414 64 
Q 2138 -91 1772 -91 
Q 1169 -91 856 284 
Q 544 659 544 1381 
z
M 1991 3584 
L 1991 3584 
z
" transform="scale(0.015625)"/>
       <path id="DejaVuSans-62" d="M 3116 1747 
Q 3116 2381 2855 2742 
Q 2594 3103 2138 3103 
Q 1681 3103 1420 2742 
Q 1159 2381 1159 1747 
Q 1159 1113 1420 752 
Q 1681 391 2138 391 
Q 2594 391 2855 752 
Q 3116 1113 3116 1747 
z
M 1159 2969 
Q 1341 3281 1617 3432 
Q 1894 3584 2278 3584 
Q 2916 3584 3314 3078 
Q 3713 2572 3713 1747 
Q 3713 922 3314 415 
Q 2916 -91 2278 -91 
Q 1894 -91 1617 61 
Q 1341 213 1159 525 
L 1159 0 
L 581 0 
L 581 4863 
L 1159 4863 
L 1159 2969 
z
" transform="scale(0.015625)"/>
       <path id="DejaVuSans-6d" d="M 3328 2828 
Q 3544 3216 3844 3400 
Q 4144 3584 4550 3584 
Q 5097 3584 5394 3201 
Q 5691 2819 5691 2113 
L 5691 0 
L 5113 0 
L 5113 2094 
Q 5113 2597 4934 2840 
Q 4756 3084 4391 3084 
Q 3944 3084 3684 2787 
Q 3425 2491 3425 1978 
L 3425 0 
L 2847 0 
L 2847 2094 
Q 2847 2600 2669 2842 
Q 2491 3084 2119 3084 
Q 1678 3084 1418 2786 
Q 1159 2488 1159 1978 
L 1159 0 
L 581 0 
L 581 3500 
L 1159 3500 
L 1159 2956 
Q 1356 3278 1631 3431 
Q 1906 3584 2284 3584 
Q 2666 3584 2933 3390 
Q 3200 3197 3328 2828 
z
" transform="scale(0.015625)"/>
       <path id="DejaVuSans-69" d="M 603 3500 
L 1178 3500 
L 1178 0 
L 603 0 
L 603 3500 
z
M 603 4863 
L 1178 4863 
L 1178 4134 
L 603 4134 
L 603 4863 
z
" transform="scale(0.015625)"/>
       <path id="DejaVuSans-73" d="M 2834 3397 
L 2834 2853 
Q 2591 2978 2328 3040 
Q 2066 3103 1784 3103 
Q 1356 3103 1142 2972 
Q 928 2841 928 2578 
Q 928 2378 1081 2264 
Q 1234 2150 1697 2047 
L 1894 2003 
Q 2506 1872 2764 1633 
Q 3022 1394 3022 966 
Q 3022 478 2636 193 
Q 2250 -91 1575 -91 
Q 1294 -91 989 -36 
Q 684 19 347 128 
L 347 722 
Q 666 556 975 473 
Q 1284 391 1588 391 
Q 1994 391 2212 530 
Q 2431 669 2431 922 
Q 2431 1156 2273 1281 
Q 2116 1406 1581 1522 
L 1381 1569 
Q 847 1681 609 1914 
Q 372 2147 372 2553 
Q 372 3047 722 3315 
Q 1072 3584 1716 3584 
Q 2034 3584 2315 3537 
Q 2597 3491 2834 3397 
z
" transform="scale(0.015625)"/>
       <path id="DejaVuSans-6f" d="M 1959 3097 
Q 1497 3097 1228 2736 
Q 959 2375 959 1747 
Q 959 1119 1226 758 
Q 1494 397 1959 397 
Q 2419 397 2687 759 
Q 2956 1122 2956 1747 
Q 2956 2369 2687 2733 
Q 2419 3097 1959 3097 
z
M 1959 3584 
Q 2709 3584 3137 3096 
Q 3566 2609 3566 1747 
Q 3566 888 3137 398 
Q 2709 -91 1959 -91 
Q 1206 -91 779 398 
Q 353 888 353 1747 
Q 353 2609 779 3096 
Q 1206 3584 1959 3584 
z
" transform="scale(0.015625)"/>
      </defs>
      <use xlink:href="#DejaVuSans-25"/>
      <use xlink:href="#DejaVuSans-20" x="95.019531"/>
      <use xlink:href="#DejaVuSans-53" x="126.806641"/>
      <use xlink:href="#DejaVuSans-75" x="190.283203"/>
      <use xlink:href="#DejaVuSans-62" x="253.662109"/>
      <use xlink:href="#DejaVuSans-6d" x="317.138672"/>
      <use xlink:href="#DejaVuSans-69" x="414.550781"/>
      <use xlink:href="#DejaVuSans-73" x="442.333984"/>
      <use xlink:href="#DejaVuSans-73" x="494.433594"/>
      <use xlink:href="#DejaVuSans-69" x="546.533203"/>
      <use xlink:href="#DejaVuSans-6f" x="574.316406"/>
      <use xlink:href="#DejaVuSans-6e" x="635.498047"/>
      <use xlink:href="#DejaVuSans-73" x="698.876953"/>
     </g>
    </g>
    <g id="line2d_43">
     <path d="M 620.666563 125.287187 
L 634.666563 125.287187 
L 648.666563 125.287187 
" style="fill: none; stroke: #ff800e; stroke-width: 3; stroke-linecap: square"/>
    </g>
    <g id="text_18">
     <!-- % Comments -->
     <g transform="translate(659.866563 130.187187) scale(0.14 -0.14)">
      <defs>
       <path id="DejaVuSans-43" d="M 4122 4306 
L 4122 3641 
Q 3803 3938 3442 4084 
Q 3081 4231 2675 4231 
Q 1875 4231 1450 3742 
Q 1025 3253 1025 2328 
Q 1025 1406 1450 917 
Q 1875 428 2675 428 
Q 3081 428 3442 575 
Q 3803 722 4122 1019 
L 4122 359 
Q 3791 134 3420 21 
Q 3050 -91 2638 -91 
Q 1578 -91 968 557 
Q 359 1206 359 2328 
Q 359 3453 968 4101 
Q 1578 4750 2638 4750 
Q 3056 4750 3426 4639 
Q 3797 4528 4122 4306 
z
" transform="scale(0.015625)"/>
      </defs>
      <use xlink:href="#DejaVuSans-25"/>
      <use xlink:href="#DejaVuSans-20" x="95.019531"/>
      <use xlink:href="#DejaVuSans-43" x="126.806641"/>
      <use xlink:href="#DejaVuSans-6f" x="196.630859"/>
      <use xlink:href="#DejaVuSans-6d" x="257.8125"/>
      <use xlink:href="#DejaVuSans-6d" x="355.224609"/>
      <use xlink:href="#DejaVuSans-65" x="452.636719"/>
      <use xlink:href="#DejaVuSans-6e" x="514.160156"/>
      <use xlink:href="#DejaVuSans-74" x="577.539062"/>
      <use xlink:href="#DejaVuSans-73" x="616.748047"/>
     </g>
    </g>
    <g id="line2d_44">
     <path d="M 620.666563 145.836562 
L 634.666563 145.836562 
L 648.666563 145.836562 
" style="fill: none; stroke: #ababab; stroke-width: 3; stroke-linecap: square"/>
    </g>
    <g id="text_19">
     <!-- % All Posts -->
     <g transform="translate(659.866563 150.736562) scale(0.14 -0.14)">
      <defs>
       <path id="DejaVuSans-41" d="M 2188 4044 
L 1331 1722 
L 3047 1722 
L 2188 4044 
z
M 1831 4666 
L 2547 4666 
L 4325 0 
L 3669 0 
L 3244 1197 
L 1141 1197 
L 716 0 
L 50 0 
L 1831 4666 
z
" transform="scale(0.015625)"/>
       <path id="DejaVuSans-6c" d="M 603 4863 
L 1178 4863 
L 1178 0 
L 603 0 
L 603 4863 
z
" transform="scale(0.015625)"/>
      </defs>
      <use xlink:href="#DejaVuSans-25"/>
      <use xlink:href="#DejaVuSans-20" x="95.019531"/>
      <use xlink:href="#DejaVuSans-41" x="126.806641"/>
      <use xlink:href="#DejaVuSans-6c" x="195.214844"/>
      <use xlink:href="#DejaVuSans-6c" x="222.998047"/>
      <use xlink:href="#DejaVuSans-20" x="250.78125"/>
      <use xlink:href="#DejaVuSans-50" x="282.568359"/>
      <use xlink:href="#DejaVuSans-6f" x="339.246094"/>
      <use xlink:href="#DejaVuSans-73" x="400.427734"/>
      <use xlink:href="#DejaVuSans-74" x="452.527344"/>
      <use xlink:href="#DejaVuSans-73" x="491.736328"/>
     </g>
    </g>
   </g>
  </g>
 </g>
 <defs>
  <clipPath id="pf72028e940">
   <rect x="108" y="86.4" width="669.6" height="554.4"/>
  </clipPath>
 </defs>
</svg>
